<svg xmlns="http://www.w3.org/2000/svg" xmlns:xlink="http://www.w3.org/1999/xlink" xmlns:serif="http://www.serif.com/" viewBox="0 0 32 40" version="1.1" xml:space="preserve" style="" x="0px" y="0px" fill-rule="evenodd" clip-rule="evenodd" stroke-linejoin="round" stroke-miterlimit="2">
    <g transform="matrix(1,0,0,1,-1740.81,-3.44293e-11)">
        <path fill="#CEE3E9" d="M1745.55,4.446C1745.55,4.446 1745.55,27.663 1745.55,28.022C1745.55,28.679 1745.81,29.31 1746.28,29.774C1746.74,30.239 1747.37,30.5 1748.03,30.5C1753.35,30.5 1767.56,30.5 1767.56,30.5C1767.84,30.5 1768.06,30.276 1768.06,30L1768.06,2C1768.06,1.724 1767.84,1.5 1767.56,1.5L1748.5,1.5C1746.87,1.5 1745.55,2.819 1745.55,4.446ZM1767.06,26.975L1767.06,25.45L1748.03,25.45C1747.64,25.45 1747.26,25.606 1746.99,25.883C1746.71,26.16 1746.55,26.536 1746.55,26.928L1746.55,28.022C1746.55,28.414 1746.71,28.79 1746.99,29.067C1747.26,29.344 1747.64,29.5 1748.03,29.5C1748.03,29.5 1767.06,29.5 1767.06,29.5L1767.06,27.975L1749.25,27.975C1748.97,27.975 1748.75,27.751 1748.75,27.475C1748.75,27.199 1748.97,26.975 1749.25,26.975L1767.06,26.975ZM1767.06,24.45L1767.06,2.5L1748.5,2.5C1747.42,2.5 1746.55,3.371 1746.55,4.446L1746.55,24.939C1746.98,24.624 1747.5,24.45 1748.03,24.45L1767.06,24.45ZM1762.71,10.351C1762.71,8.685 1761.73,7.177 1760.2,6.506C1758.73,5.86 1757.07,5.129 1757.07,5.129C1756.94,5.073 1756.8,5.073 1756.67,5.127C1756.67,5.127 1754.96,5.865 1753.45,6.514C1751.9,7.177 1750.9,8.695 1750.9,10.373L1750.9,21.37C1750.9,21.646 1751.13,21.87 1751.4,21.87L1762.21,21.87C1762.49,21.87 1762.71,21.646 1762.71,21.37L1762.71,10.351ZM1761.71,10.351L1761.71,20.87C1761.71,20.87 1751.9,20.87 1751.9,20.87C1751.9,20.87 1751.9,10.373 1751.9,10.373C1751.9,9.094 1752.67,7.938 1753.84,7.433C1753.84,7.433 1756.87,6.132 1756.87,6.132C1756.87,6.132 1759.8,7.421 1759.8,7.421C1760.96,7.932 1761.71,9.082 1761.71,10.351Z"/>
    </g>
    <text x="0" y="47" fill="#CEE3E9" font-size="5px" font-weight="bold" font-family="'Helvetica Neue', Helvetica, Arial-Unicode, Arial, Sans-serif"></text>
    <text x="0" y="52" fill="#CEE3E9" font-size="5px" font-weight="bold" font-family="'Helvetica Neue', Helvetica, Arial-Unicode, Arial, Sans-serif"></text>
</svg>